<?xml version="1.0" encoding="utf-8"?>
<!-- Generator: Adobe Illustrator 23.0.3, SVG Export Plug-In . SVG Version: 6.00 Build 0)  -->
<svg version="1.1" id="Layer_1" xmlns="http://www.w3.org/2000/svg" xmlns:xlink="http://www.w3.org/1999/xlink" x="0px" y="0px"
	 viewBox="0 0 396 201" style="enable-background:new 0 0 396 201;" xml:space="preserve">
<style type="text/css">
	.st0{fill:#03B0D0;}
	.st1{fill:#FFFFFF;}
</style>
<g>
	<path class="st0" d="M366.5,142h-2.7c0.1-1.6,0.2-3.3,0.2-5c0-32.6-26.4-59-59-59l0,0c-0.7,0-1.4,0-2,0c0-0.5,0-1,0-1.5
		C303,43,275.9,16,242.5,16c-11.9,0-23.6,3.5-33.5,10.1C190.9-1,154.2-8.2,127.1,9.9c-8.4,5.6-15.2,13.3-19.8,22.3
		c-2.2-0.2-4.5-0.3-6.9-0.3C57.7,32,23,66.8,23,109.6c0,4.1,0.3,8.2,1,12.3c-4.4,2.1-8.4,4.9-11.8,8.3
		c-16.2,16.2-16.3,42.4-0.1,58.6c7.8,7.8,18.4,12.2,29.4,12.2h325c16.3,0,29.5-13.2,29.5-29.5S382.8,142,366.5,142z"/>
	<path class="st1" d="M99.5,88.5c0.1,4.1-0.8,8.1-2.7,11.8c-1.8,3.1-4.5,5.6-7.8,7.1c-3.9,1.7-8.1,2.5-12.3,2.4H64.9V68.1H78
		c3.9-0.1,7.8,0.7,11.4,2.3c3.1,1.5,5.7,3.9,7.5,6.9C98.7,80.8,99.6,84.6,99.5,88.5z M90.3,88.8c0.1-2.6-0.4-5.2-1.4-7.6
		c-0.8-1.9-2.2-3.4-4-4.4c-2-1-4.3-1.5-6.5-1.4h-4.7v27.1h3.8c4.3,0,7.5-1.2,9.6-3.5C89.2,96.7,90.3,93.3,90.3,88.8z M120.5,77.3
		c4.3,0,7.5,0.9,9.8,2.8c2.3,1.9,3.4,4.7,3.4,8.5v21.2h-6.1l-1.6-4.3h-0.2c-0.8,1-1.7,2-2.8,2.8c-1,0.7-2.1,1.3-3.3,1.6
		c-1.5,0.4-3,0.6-4.5,0.5c-1.7,0-3.5-0.3-5.1-1.1c-1.5-0.7-2.7-1.9-3.5-3.3c-0.9-1.7-1.4-3.7-1.3-5.7c0-3.4,1.2-5.9,3.6-7.5
		s5.9-2.5,10.7-2.7l5.5-0.2v-1.4c0.1-1.4-0.4-2.7-1.3-3.7c-1-0.8-2.3-1.2-3.6-1.2c-1.5,0-3.1,0.2-4.5,0.7c-1.5,0.4-3,1-4.5,1.6
		l-2.9-5.9c1.8-0.9,3.7-1.7,5.7-2.1C116.1,77.5,118.3,77.3,120.5,77.3z M125.1,95l-3.4,0.1c-2.8,0.1-4.8,0.6-5.9,1.5
		c-1.1,0.9-1.7,2.3-1.6,3.7c-0.1,1.1,0.3,2.1,1.2,2.8c0.9,0.6,2,0.9,3,0.8c1.7,0,3.4-0.5,4.7-1.6c1.3-1.2,2-2.9,1.9-4.7L125.1,95z
		 M156.1,103.4c0.9,0,1.9-0.1,2.8-0.3c0.9-0.2,1.8-0.4,2.7-0.7v6.5c-1.1,0.5-2.3,0.8-3.5,1c-1.5,0.3-3,0.4-4.5,0.4
		c-1.7,0-3.5-0.3-5.1-0.9c-1.5-0.6-2.8-1.8-3.6-3.2c-1-2-1.4-4.2-1.3-6.4V84.4h-4.2v-3.7l4.8-2.9l2.5-6.7h5.6v6.8h8.9v6.5h-8.9v15.4
		c-0.1,1,0.3,2,1,2.7C154.1,103.2,155.1,103.5,156.1,103.4z M181,77.3c4.3,0,7.5,0.9,9.8,2.8c2.3,1.9,3.4,4.7,3.4,8.5v21.2h-6.1
		l-1.7-4.3h-0.2c-0.8,1-1.7,2-2.8,2.8c-1,0.7-2.1,1.3-3.3,1.6c-1.5,0.4-3,0.6-4.5,0.5c-1.7,0-3.5-0.3-5.1-1.1
		c-1.5-0.7-2.7-1.9-3.5-3.3c-0.9-1.7-1.4-3.7-1.3-5.7c0-3.4,1.2-5.9,3.6-7.5s5.9-2.5,10.7-2.7l5.5-0.2v-1.4c0.1-1.4-0.4-2.7-1.3-3.7
		c-1-0.8-2.3-1.3-3.6-1.2c-1.5,0-3.1,0.2-4.5,0.7c-1.5,0.4-3,1-4.4,1.6l-2.9-5.9c1.8-0.9,3.7-1.6,5.7-2.1
		C176.7,77.5,178.9,77.3,181,77.3z M185.7,95l-3.4,0.1c-2.8,0.1-4.8,0.6-5.9,1.5c-1.1,0.9-1.7,2.3-1.6,3.7c-0.1,1.1,0.3,2.1,1.2,2.8
		c0.9,0.6,1.9,0.9,3,0.8c1.7,0,3.4-0.5,4.7-1.6c1.3-1.2,2-2.9,1.9-4.7L185.7,95z M130.2,164.2c0.2,4.7-2.6,9-7,10.6
		c-2.6,1.1-5.5,1.6-8.3,1.5c-1.4,0-2.8-0.1-4.2-0.3c-1.4-0.2-2.7-0.5-4-0.8c-1.2-0.4-2.4-0.8-3.6-1.4v-8.2c2,0.9,4,1.7,6.2,2.4
		c2,0.7,4.2,1,6.3,1c1.2,0,2.4-0.1,3.5-0.6c0.8-0.3,1.5-0.9,1.9-1.6c0.4-0.7,0.6-1.5,0.6-2.3c0-1-0.4-2-1.1-2.7
		c-0.8-0.9-1.8-1.6-2.9-2.1c-1.2-0.6-2.6-1.3-4.1-2.1c-1-0.5-2-1-3.2-1.7c-1.2-0.7-2.3-1.5-3.3-2.4c-1-1-1.9-2.2-2.5-3.5
		c-0.7-1.5-1-3.2-1-4.9c-0.1-2.2,0.5-4.5,1.7-6.4c1.2-1.8,2.9-3.2,4.9-4.1c2.4-1,4.9-1.5,7.5-1.4c2.1,0,4.2,0.2,6.2,0.8
		c2.1,0.6,4.2,1.3,6.2,2.2l-2.9,6.9c-1.7-0.7-3.4-1.3-5.2-1.8c-1.5-0.4-3.1-0.6-4.6-0.6c-1,0-1.9,0.1-2.8,0.5
		c-0.7,0.3-1.3,0.8-1.8,1.5c-0.4,0.7-0.6,1.4-0.6,2.2c0,0.9,0.3,1.8,0.9,2.5c0.8,0.8,1.6,1.5,2.6,2c1.2,0.6,2.6,1.4,4.4,2.2
		c1.9,0.9,3.7,1.9,5.5,3.1c1.4,1,2.6,2.3,3.5,3.9C129.8,160.4,130.2,162.3,130.2,164.2z M150.2,143.3c2.6-0.1,5.3,0.5,7.6,1.7
		c2.1,1.1,3.8,2.8,4.9,4.9c1.2,2.4,1.8,5.1,1.7,7.9v4.2h-20.5c0,2.1,0.8,4.2,2.2,5.8c1.5,1.5,3.6,2.2,5.7,2.1c1.9,0,3.8-0.2,5.6-0.6
		c1.8-0.5,3.5-1.1,5.2-1.9v6.7c-1.6,0.8-3.2,1.3-5,1.7c-2.1,0.4-4.2,0.6-6.3,0.5c-2.9,0.1-5.8-0.5-8.5-1.8c-2.4-1.2-4.5-3-5.8-5.4
		c-1.5-2.8-2.2-5.9-2.1-9.1c-0.1-3.2,0.5-6.4,1.9-9.3c1.1-2.4,3-4.3,5.3-5.6C144.7,143.9,147.4,143.3,150.2,143.3z M150.2,149.5
		c-1.6-0.1-3.1,0.5-4.2,1.6c-1.2,1.4-1.9,3.2-1.9,5.1h12.2c0-1.2-0.2-2.4-0.7-3.5c-0.4-1-1.1-1.8-2-2.4
		C152.6,149.8,151.4,149.5,150.2,149.5z M189.3,143.3c0.4,0,1,0,1.5,0.1c0.5,0,0.9,0.1,1.4,0.2l-0.7,8.1c-0.4-0.1-0.8-0.2-1.2-0.2
		c-0.5,0-1-0.1-1.4-0.1c-1.1,0-2.2,0.1-3.3,0.4c-1,0.3-2,0.7-2.8,1.4c-0.9,0.7-1.5,1.5-2,2.5c-0.5,1.2-0.8,2.5-0.7,3.8v16.2h-8.7
		v-31.9h6.6l1.3,5.4h0.4c0.6-1.1,1.4-2.1,2.4-3c0.9-0.9,2-1.6,3.2-2.2C186.6,143.6,188,143.3,189.3,143.3z M205.6,175.8l-12.1-31.9
		h9.1l6.1,18.1c0.3,1.1,0.6,2.2,0.8,3.4c0.2,1.2,0.3,2.2,0.4,3.2h0.2c0.1-2.2,0.6-4.4,1.3-6.5l6.1-18.1h9.1l-12.1,31.9L205.6,175.8z
		 M235.6,131.4c1.2,0,2.3,0.3,3.3,0.9c0.9,0.6,1.4,1.7,1.4,3.4c0.1,1.3-0.4,2.5-1.4,3.4c-2.1,1.2-4.6,1.2-6.7,0
		c-1-0.8-1.5-2.1-1.4-3.4c0-1.6,0.5-2.8,1.4-3.4C233.3,131.7,234.4,131.4,235.6,131.4z M239.9,143.9v31.9h-8.7v-31.9L239.9,143.9z
		 M262,176.4c-2.8,0.1-5.6-0.5-8.1-1.7c-2.2-1.2-4-3-5.1-5.3c-1.3-2.9-1.9-6.1-1.7-9.3c-0.1-3.3,0.6-6.6,2-9.5
		c1.2-2.3,3.1-4.3,5.5-5.4c2.5-1.2,5.3-1.8,8.2-1.7c1.9,0,3.8,0.2,5.7,0.6c1.4,0.4,2.9,0.9,4.2,1.5l-2.6,6.7c-1.4-0.5-2.6-1-3.8-1.4
		c-1.1-0.3-2.3-0.5-3.5-0.5c-2.8-0.2-5.3,1.6-6,4.3c-0.6,1.7-0.8,3.6-0.8,5.4c-0.1,1.8,0.2,3.6,0.8,5.2c0.4,1.3,1.2,2.3,2.3,3.1
		c1.1,0.7,2.4,1,3.7,1c1.6,0,3.3-0.2,4.8-0.7c1.4-0.5,2.8-1.2,4.1-2v7.4c-1.3,0.8-2.7,1.4-4.2,1.8
		C265.7,176.2,263.9,176.4,262,176.4z M292.2,143.3c2.6-0.1,5.3,0.5,7.6,1.7c2.1,1.1,3.8,2.8,4.9,4.9c1.2,2.4,1.8,5.1,1.7,7.9v4.2
		h-20.5c0,2.1,0.8,4.2,2.2,5.8c1.5,1.5,3.6,2.2,5.7,2.1c1.9,0,3.8-0.2,5.6-0.6c1.8-0.5,3.5-1.1,5.2-1.9v6.7
		c-1.6,0.8-3.2,1.3-4.9,1.7c-2.1,0.4-4.2,0.6-6.3,0.5c-2.9,0.1-5.8-0.5-8.5-1.8c-2.4-1.2-4.5-3-5.8-5.4c-1.5-2.8-2.2-5.9-2.1-9.1
		c-0.1-3.2,0.5-6.4,1.9-9.3c1.2-2.4,3-4.3,5.3-5.6C286.7,143.9,289.4,143.3,292.2,143.3z M292.3,149.5c-1.6-0.1-3.1,0.5-4.2,1.6
		c-1.2,1.4-1.9,3.2-1.9,5.1h12.2c0-1.2-0.2-2.4-0.7-3.5c-0.4-1-1.1-1.8-2-2.4C294.6,149.8,293.4,149.5,292.3,149.5z M335.8,166.3
		c0.1,1.9-0.5,3.9-1.5,5.5c-1.1,1.6-2.7,2.8-4.5,3.4c-2.4,0.8-5,1.2-7.5,1.2c-1.9,0-3.8-0.1-5.7-0.4c-1.6-0.3-3.3-0.8-4.8-1.4v-7.2
		c1.8,0.8,3.7,1.5,5.6,1.9c1.7,0.5,3.5,0.7,5.2,0.8c1.3,0.1,2.5-0.2,3.6-0.8c0.7-0.4,1.1-1.2,1.1-2c0-0.5-0.1-1-0.4-1.4
		c-0.5-0.6-1.2-1.1-1.9-1.5c-1.5-0.8-3-1.5-4.6-2.1c-1.7-0.7-3.4-1.5-4.9-2.5c-1.2-0.7-2.2-1.8-2.9-3c-0.7-1.4-1-2.9-0.9-4.5
		c-0.1-2.7,1.2-5.2,3.4-6.7c2.3-1.5,5.4-2.2,9.2-2.2c1.9,0,3.8,0.2,5.7,0.6c1.9,0.4,3.8,1.1,5.5,1.9l-2.6,6.3
		c-1.5-0.6-2.9-1.2-4.5-1.7c-1.4-0.4-2.8-0.6-4.3-0.6c-1-0.1-2,0.1-2.9,0.5c-0.6,0.3-1,0.9-1,1.6c0,0.5,0.2,1,0.5,1.4
		c0.6,0.6,1.2,1,1.9,1.3c1,0.5,2.4,1.1,4.2,1.9c1.6,0.6,3.2,1.4,4.7,2.3c1.3,0.7,2.3,1.8,3.1,3C335.4,163.1,335.8,164.7,335.8,166.3
		z"/>
</g>
</svg>
